<svg xmlns="http://www.w3.org/2000/svg" width="1500" height="1500" viewBox="0 0 1500 1500">
  <defs>
    <style>
      .cls-1 {
        fill: #e1f1f2;
      }

      .cls-1, .cls-4 {
        stroke: #030303;
        stroke-width: 1px;
      }

      .cls-1, .cls-2, .cls-3, .cls-4 {
        fill-rule: evenodd;
      }

      .cls-2 {
        fill: #fff;
      }

      .cls-3, .cls-4 {
        fill: #04111e;
      }
    </style>
  </defs>
  <path id="Tvar_1" data-name="Tvar 1" class="cls-1" d="M709.919,289.8L393.3,496.887,217.151,901.566l9.662,49.547L965.124,1202.53,1065.49,933.674l42.44-572.194Z"/>
  <path id="Tvar_3_kopie" data-name="Tvar 3 kopie" class="cls-2" d="M289.122,360.022C316.188,342.772,637.8,135.781,637.8,135.781s37.987-21.23,92.03-6.481C788.9,141.533,1169,204.9,1192.57,208.368s42.86,4.357,66.1,62.217c23.06,55.486,191.84,440.705,191.84,440.705s57.24,92.915-11.67,187.948c-78.63,111.442-245.4,366.812-299.42,431.632s-129.53,60.42-204.8,36.29c-20.167-5.76-814-274.79-826.97-281.27S-19.45,1016.3,24.7,904.423C83.386,760.1,211.949,465.113,229.5,430.017S243.913,387.088,289.122,360.022Z"/>
  <path id="Tvar_3" data-name="Tvar 3" class="cls-3" d="M342.338,396.192c24.1-15.362,310.514-199.7,310.514-199.7s33.829-18.907,81.957-5.772c52.611,10.894,391.111,67.324,412.091,70.414s38.18,3.88,58.87,55.408c20.54,49.413,170.84,392.471,170.84,392.471s50.98,82.745-10.38,167.377c-70.04,99.247-218.55,326.668-266.65,384.388s-115.36,53.81-182.388,32.32c-17.959-5.13-724.914-244.71-736.46-250.48S67.538,980.646,106.855,881.01C159.12,752.478,273.611,489.781,289.239,458.526S302.077,420.3,342.338,396.192Z"/>
  <path id="Tvar_5" data-name="Tvar 5" class="cls-2" d="M375.813,458.526S676.362,259.6,693.253,254.21c0,0,423.577,72.98,427.1,73.877,0,0-159.652,221.938-163.911,228.557s-29.762,59.666-151.216,42.71S445.114,529.9,375.813,458.526Z"/>
  <path id="Tvar_2" data-name="Tvar 2" class="cls-3" d="M919.5,669.768s-350.955,14.565-581.781-146.6C329.456,540.879,171.5,906.405,171.5,906.405c-4.806,19.826,5.674,44.187,20.778,55.407,9.422,4.926,779.171,266.648,779.171,266.648,3.84,0.66,11.543,1.16,11.543,1.16Z"/>
  <path id="Tvar_4" data-name="Tvar 4" class="cls-3" d="M995.686,659.379S1132.91,424.5,1178.07,400.81c13.28,21.07,151.22,380.928,151.22,380.928l-265.5,398.242Z"/>
  <path id="Obdélník_1" data-name="Obdélník 1" class="cls-4" d="M763.667,330.4c45.61,41.344-50.171,137.5-114.278,153.525C651.147,487.313,666.7,517.4,666.7,517.4L618.222,528.94,598.6,490.847s-23.75-1.238-31.167-3.463c-14.215-4.264-23.186-11.421-33.475-24.241-3.924-10.124-16.45-82.709,98.118-136.21C642.712,321.52,701.738,292.96,763.667,330.4ZM655.16,351.174c-42.747,22.544-90.1,84.287-76.185,101.58,8.716,12.775,42.873,10.7,57.716,4.618,34.225-13.067,97.374-83.472,87.729-100.427C708.211,329.508,658.375,348.339,655.16,351.174ZM835.235,458.526l-42.71,12.7L747.506,520.86c-7.447-1.238-47.327-11.543-47.327-11.543L851.4,344.248l47.327,10.389-68.1,75.031L979.526,370.8l58.874,12.7L889.489,440.057,891.8,549.718l-57.716-11.543Z"/>
</svg>
