<svg xmlns="http://www.w3.org/2000/svg" width="1500" height="1500" viewBox="0 0 1500 1500">
  <defs>
    <style>
      .cls-1 {
        fill: #e1f1f2;
      }

      .cls-1, .cls-4 {
        stroke: #030303;
        stroke-width: 1px;
      }

      .cls-1, .cls-2, .cls-3, .cls-4 {
        fill-rule: evenodd;
      }

      .cls-2 {
        fill: #fff;
      }

      .cls-3, .cls-4 {
        fill: #04111e;
      }
    </style>
  </defs>
  <path id="Tvar_1" data-name="Tvar 1" class="cls-1" d="M709.919,289.8L393.3,496.887,217.151,901.566l9.662,49.547L965.124,1202.53,1065.49,933.674l42.44-572.194Z"/>
  <path id="Tvar_3_kopie" data-name="Tvar 3 kopie" class="cls-2" d="M349.9,412.666C373.346,397.721,651.958,218.4,651.958,218.4s32.909-18.392,79.726-5.614c51.179,10.6,380.466,65.49,400.876,68.5s37.13,3.774,57.27,53.9c19.97,48.067,166.19,381.785,166.19,381.785s49.58,80.493-10.11,162.821c-68.12,96.544-212.59,317.768-259.39,373.928s-112.215,52.34-177.418,31.44c-17.47-4.99-705.178-238.06-716.409-243.67S82.581,981.206,120.827,884.283C171.669,759.251,283.043,503.707,298.245,473.3S310.734,436.113,349.9,412.666Z"/>
  <path id="Tvar_3" data-name="Tvar 3" class="cls-3" d="M396,444c20.881-13.309,269-173,269-173s29.307-16.379,71-5c45.577,9.437,338.82,58.322,357,61s33.07,3.361,51,48c17.79,42.807,148,340,148,340s44.16,71.683-9,145c-60.67,85.978-189.33,282.99-231,333s-99.934,46.61-158,28c-15.558-4.45-628-212-638-217s-98.061-53.685-64-140c45.277-111.348,144.462-338.923,158-366S361.122,464.881,396,444Z"/>
  <path id="Tvar_5" data-name="Tvar 5" class="cls-2" d="M425,498S685.367,325.668,700,321c0,0,366.94,63.223,370,64,0,0-138.311,192.266-142,198s-25.784,51.689-131,37S485.036,559.828,425,498Z"/>
  <path id="Tvar_2" data-name="Tvar 2" class="cls-3" d="M896,681S591.966,693.618,392,554c-7.16,15.343-144,332-144,332-4.164,17.176,4.915,38.28,18,48,8.162,4.267,675,231,675,231,3.327,0.57,10,1,10,1Z"/>
  <path id="Tvar_4" data-name="Tvar 4" class="cls-3" d="M962,672s118.88-203.475,158-224c11.51,18.253,131,330,131,330l-230,345Z"/>
  <path id="Obdélník_1" data-name="Obdélník 1" class="cls-4" d="M761,387c39.512,35.817-43.463,119.116-99,133,1.524,2.938,15,29,15,29l-42,10-17-33s-20.575-1.073-27-3c-12.315-3.694-20.086-9.894-29-21-3.4-8.771-14.251-71.652,85-118C656.216,379.311,707.351,354.569,761,387Zm-94,18c-37.032,19.53-78.051,73.019-66,88,7.551,11.067,37.141,9.27,50,4,29.649-11.32,84.355-72.312,76-87C712.958,386.231,669.785,402.544,667,405Zm156,93-37,11-39,43c-6.452-1.073-41-10-41-10L837,399l41,9-59,65,129-51,51,11L870,482l2,95-50-10Z"/>
</svg>
