<svg id="Skupina_1" data-name="Skupina 1" xmlns="http://www.w3.org/2000/svg" width="2000" height="2000" viewBox="0 0 2000 2000">
  <defs>
    <style>
      .cls-1 {
        fill: #2b4862;
      }

      .cls-1, .cls-2, .cls-3, .cls-4, .cls-5, .cls-6, .cls-7, .cls-8 {
        fill-rule: evenodd;
      }

      .cls-2 {
        fill: #4b7caa;
        stroke: #143450;
      }

      .cls-2, .cls-6 {
        stroke-width: 20px;
      }

      .cls-3 {
        fill: #5891c6;
      }

      .cls-4 {
        fill: #65a6e3;
      }

      .cls-5 {
        fill: #5e481e;
      }

      .cls-6 {
        fill: #c2953e;
        stroke: #473410;
      }

      .cls-7 {
        fill: #d6a444;
      }

      .cls-8 {
        fill: #e9b34a;
      }

      .cls-9 {
        font-size: 75px;
        text-anchor: middle;
        font-family: "Roboto Mono";
        font-weight: 700;
      }
    </style>
  </defs>
  <path id="Obdélník_1_kopie_2" data-name="Obdélník 1 kopie 2" class="cls-1" d="M181.561,643.338H932.983a40,40,0,0,1,40,40V1435a40,40,0,0,1-40,40H181.561a40,40,0,0,1-40-40V683.338A40,40,0,0,1,181.561,643.338Z"/>
  <path id="Obdélník_1" data-name="Obdélník 1" class="cls-2" d="M100.72,539.724H852.142a40,40,0,0,1,40,40V1331.39a40,40,0,0,1-40,40H100.72a40,40,0,0,1-40-40V579.724A40,40,0,0,1,100.72,539.724Z"/>
  <path id="Obdélník_1_kopie_4" data-name="Obdélník 1 kopie 4" class="cls-3" d="M173.858,612.883H779.005a40,40,0,0,1,40,40V1258.23a40,40,0,0,1-40,40H173.858a40,40,0,0,1-40-40V652.883A40,40,0,0,1,173.858,612.883Z"/>
  <path id="Obdélník_1_kopie_5" data-name="Obdélník 1 kopie 5" class="cls-4" d="M265.99,705.042H686.872a40,40,0,0,1,40,40V1166.07a40,40,0,0,1-40,40H265.99a40,40,0,0,1-40-40V745.042A40,40,0,0,1,265.99,705.042Z"/>
  <path id="Obdélník_1_kopie_3" data-name="Obdélník 1 kopie 3" class="cls-5" d="M1140.58,643.338H1892a40,40,0,0,1,40,40V1435a40,40,0,0,1-40,40H1140.58a40,40,0,0,1-40-40V683.338A40,40,0,0,1,1140.58,643.338Z"/>
  <path id="Obdélník_1_kopie" data-name="Obdélník 1 kopie" class="cls-6" d="M1066.6,539.724h751.42a40,40,0,0,1,40,40V1331.39a40,40,0,0,1-40,40H1066.6a40,40,0,0,1-40-40V579.724A40,40,0,0,1,1066.6,539.724Z"/>
  <path id="Obdélník_1_kopie_6" data-name="Obdélník 1 kopie 6" class="cls-7" d="M1136.59,609.737h611.44a40,40,0,0,1,40,40V1261.37a40,40,0,0,1-40,40H1136.59a40,40,0,0,1-40-40V649.737A40,40,0,0,1,1136.59,609.737Z"/>
  <path id="Obdélník_1_kopie_7" data-name="Obdélník 1 kopie 7" class="cls-8" d="M1231.79,704.967h421.03a40,40,0,0,1,40,40V1166.14a40,40,0,0,1-40,40H1231.79a40,40,0,0,1-40-40V744.967A40,40,0,0,1,1231.79,704.967Z"/>
  <text id="Q" class="cls-9" transform="translate(322.344 1026.678) scale(6.84 6.842)"><tspan x="0">Q</tspan></text>
  <text id="K" class="cls-9" transform="translate(1241.572 1026.678) scale(6.84 6.842)"><tspan x="0">K</tspan></text>
</svg>
